PathFileType	4	(X/Y/Z)	OpenSim_Sub04_CSBaseline_Gyro.trc
DataRate	CameraRate	NumFrames	NumMarkers	Units	OrigDataRate	OrigDataStartFrame	OrigNumFrames
100	100	24	8	m	100	7073	8083
Frame#	Time	torso_imu_offset_imu	pelvis_imu_offset_imu	tibia_r_imu_offset_imu	femur_r_imu_offset_imu	tibia_l_imu_offset_imu	femur_l_imu_offset_imu	toes_r_imu_offset_imu	toes_l_imu_offset_imu
				X1	Y1	Z1	X2	Y2	Z2	X3	Y3	Z3	X4	Y4	Z4	X5	Y5	Z5	X6	Y6	Z6	X7	Y7	Z7	X8		Y8	Z8	

7073	70.72000000	0.33996864	0.32238059	-0.19077666	-0.24186403	0.12420386	0.21256102	-0.85655745	0.88618458	4.96019126	0.42066708	0.38956119	0.64108462	0.16938528	-0.15837374	0.53879936	0.09139749	-0.57668320	0.63301584	-1.67014206	4.76708987	1.34308976	-0.02043036	-0.17117031	0.25111571
7074	70.73000000	0.31271968	0.31743327	-0.16528316	-0.20675801	0.11819676	0.21184490	-1.04167788	0.90277757	5.06357689	0.28755342	0.25798657	0.46902477	0.20155872	-0.16418380	0.56919469	0.08369728	-0.58264188	0.65181027	-1.51539230	4.73786357	1.03700449	-0.00120674	-0.17761646	0.24639751
7075	70.74000000	0.29168521	0.30134554	-0.14150038	-0.16454335	0.13187840	0.22840264	-1.31237383	0.82429651	5.09388450	0.14006811	0.15529639	0.27939157	0.20822260	-0.16167829	0.58655709	0.08085002	-0.60383411	0.64218321	-1.40355614	4.66001921	0.75479552	0.02282833	-0.19219837	0.24206906
7076	70.75000000	0.28577382	0.28883324	-0.12639511	-0.11107659	0.15901562	0.22912610	-1.56629736	0.73001245	5.10297252	-0.00397343	0.10671162	0.08118251	0.23386771	-0.14921587	0.58937990	0.08372162	-0.61805404	0.61041038	-1.44191912	4.69198604	0.58970667	0.02764273	-0.21813065	0.24642098
7077	70.76000000	0.25920301	0.26402256	-0.12054040	-0.06298462	0.18500435	0.22288883	-1.63630172	0.71502605	5.17810929	-0.17055810	0.07473880	-0.12038107	0.23561400	-0.14898414	0.60195493	0.07854211	-0.60455815	0.57454500	-1.63610401	4.85126835	0.60145251	0.03970928	-0.23987249	0.24466654
7078	70.77000000	0.23264159	0.23642839	-0.11155046	-0.01385608	0.18537268	0.20697388	-1.65145169	0.77959682	5.24323182	-0.36480283	0.04578503	-0.30308093	0.21861795	-0.15117822	0.64546726	0.08812126	-0.56316198	0.53027414	-1.71492030	4.96961175	0.67381034	0.02252684	-0.27312064	0.25848501
7079	70.78000000	0.19641309	0.21094925	-0.09841373	0.05130330	0.15749017	0.18297406	-1.66931019	0.79459816	5.21352173	-0.57159988	-0.01296148	-0.46659120	0.21895334	-0.14356501	0.67215206	0.07106832	-0.50025637	0.49681599	-1.56919741	4.88488126	0.73779831	0.01991746	-0.29087047	0.25598236
7080	70.79000000	0.15670280	0.19834424	-0.07481701	0.12272219	0.10883169	0.14081193	-1.63708781	0.70512665	5.12713587	-0.70916268	-0.08339733	-0.61362184	0.24529162	-0.13692159	0.70790499	0.03256164	-0.43856141	0.48148441	-1.29930131	4.62602952	0.80790858	0.04378276	-0.32985894	0.26653666
7081	70.80000000	0.11469813	0.19610946	-0.05642078	0.19195721	0.04742565	0.10250903	-1.55968227	0.55491197	5.01276048	-0.77766290	-0.16558506	-0.72563346	0.29160698	-0.12401429	0.71739523	-0.00974406	-0.38987979	0.47711401	-1.01651269	4.31211979	0.90873388	0.06951046	-0.36471645	0.27908595
7082	70.81000000	0.07607630	0.18061181	-0.03991734	0.23737860	-0.01136998	0.06706623	-1.36903609	0.45231094	4.84029863	-0.75492986	-0.25165022	-0.79954575	0.28391767	-0.13655237	0.74889144	-0.01687058	-0.36200138	0.48894168	-0.75135102	3.94312198	1.00020545	0.04288329	-0.40885436	0.29906283
7083	70.82000000	0.03264797	0.15894768	-0.01833214	0.26228095	-0.04381342	0.02986539	-0.95927140	0.42035096	4.57752317	-0.65646991	-0.32093717	-0.83838513	0.29851866	-0.11953743	0.79255811	-0.00308331	-0.33086881	0.51484879	-0.54306001	3.66044687	1.11757353	0.05774111	-0.45884082	0.27152474
7084	70.83000000	-0.00215013	0.13401740	0.00029318	0.26295998	-0.04343089	-0.00384267	-0.51918478	0.44821746	4.22349443	-0.52245449	-0.34338591	-0.86281910	0.32273094	-0.10054478	0.82771982	0.02315136	-0.33258366	0.53203556	-0.35776739	3.50524873	1.25803821	0.21350505	-0.56054309	0.22224654
7085	70.84000000	-0.03701893	0.11142486	0.02890722	0.24420077	-0.03215684	-0.03094069	-0.15206311	0.50342391	3.79442856	-0.36210675	-0.31003887	-0.86489224	0.38023416	-0.04550592	0.82626866	0.04855374	-0.34525248	0.56345744	-0.14527476	3.27269066	1.39363959	0.27205117	-0.62697455	0.17761922
7086	70.85000000	-0.06723422	0.08613027	0.04847836	0.24210042	-0.04661731	-0.05740125	0.18309759	0.42817149	3.33047107	-0.19404292	-0.28739637	-0.83956218	0.38214608	-0.01575267	0.83115088	0.06061135	-0.35686198	0.61422295	0.11599303	2.83560426	1.51661645	0.31694663	-0.68826012	0.12637536
7087	70.86000000	-0.08378932	0.06828284	0.06049955	0.24994950	-0.07759815	-0.08744924	0.55324013	0.29382179	2.87324238	-0.05626566	-0.32275946	-0.79001275	0.40963565	-0.00016033	0.86948400	0.08803028	-0.37309022	0.64635120	0.46486613	2.24247086	1.59060829	0.44062384	-0.79343177	0.06078313
7088	70.87000000	-0.09639950	0.04836059	0.07176459	0.25482412	-0.10140899	-0.10750546	0.99361751	0.25480218	2.37758127	-0.00605952	-0.38622838	-0.68703722	0.45849519	0.01882557	0.92511558	0.09465907	-0.38278237	0.64327933	0.77067180	1.60267311	1.63304631	0.49973477	-0.86871239	0.00736140
7089	70.88000000	-0.09939612	0.02536932	0.07328484	0.26010690	-0.11783826	-0.12058315	1.43360252	0.25257638	1.72762820	-0.00414457	-0.43139845	-0.53894719	0.53279927	0.04759013	0.98142168	0.12453088	-0.39704807	0.61755060	0.88364342	0.96901066	1.59591487	0.56598818	-0.94663172	-0.04876107
7090	70.89000000	-0.10011256	0.00408153	0.07797398	0.26549295	-0.12787333	-0.12845510	1.62984373	0.09945698	0.96228263	0.00433311	-0.42354236	-0.33274399	0.59963779	0.08570126	1.01959850	0.14958402	-0.39955869	0.59612289	0.77550873	0.30011050	1.42066682	0.67392130	-1.04404248	-0.10426273
7091	70.90000000	-0.12012625	-0.01296455	0.07719270	0.28538872	-0.12434244	-0.12311574	1.43741666	-0.11746011	0.17597947	0.04523875	-0.34101462	-0.07954039	0.61033483	0.09333529	1.06851973	0.14492446	-0.37938310	0.56125584	0.58567681	-0.36689971	1.14335383	0.70824809	-1.14323695	-0.09344800
7092	70.91000000	-0.14748384	-0.04214674	0.07152809	0.30521778	-0.11077327	-0.11347442	1.19117295	-0.22645926	-0.53926462	0.16029962	-0.22509021	0.14753998	0.54706764	0.07553199	1.11471272	0.16961229	-0.34041912	0.50917477	0.44071328	-1.10858583	0.92657126	0.73498112	-1.24252374	-0.05268389
7093	70.92000000	-0.18520837	-0.07943824	0.06902725	0.33579184	-0.08810720	-0.09688747	1.00060636	-0.30039676	-1.19807345	0.28857514	-0.11820128	0.27905931	0.43847021	0.04869072	1.17099057	0.18858439	-0.27679190	0.46721435	0.61879268	-2.00767718	0.77545265	0.74193141	-1.32153865	-0.00016702
7094	70.93000000	-0.18610537	-0.11759745	0.06202388	0.39189614	-0.07622535	-0.06872366	0.91193484	-0.46559395	-1.78241006	0.32692855	-0.03415389	0.33241075	0.37857804	0.02475752	1.22847505	0.28783157	-0.19384511	0.42513942	0.02322857	-2.66488829	0.76042362	0.72868314	-1.42426953	0.06044060
7095	70.94000000	-0.21228630	-0.15755273	0.06265983	0.45019891	-0.06886127	-0.04813282	0.80885985	-0.58005575	-2.15196271	0.28822744	0.00228707	0.30948605	0.30914836	0.00535777	1.31612559	0.46863841	-0.10071478	0.40209287	-0.18238579	-2.02616240	0.95711897	0.72846588	-1.50367980	0.08886123
7096	70.95000000	-0.24958055	-0.19244951	0.06746784	0.51773131	-0.05820561	-0.03436629	0.51626778	-0.69343494	-1.96191262	0.15934885	-0.11074962	0.19599562	0.28381676	-0.03712216	1.44853858	0.70413397	0.01347677	0.38208306	0.77359685	-1.68548338	0.35468312	0.76276762	-1.60612385	0.11484101
